<svg xmlns="http://www.w3.org/2000/svg" width="501.23" height="283.869" viewBox="0 0 501.23 283.869">
  <defs>
    <style>
      .cls-1 {
        fill: none;
      }

      .cls-2 {
        fill: #fff;
      }

      .cls-3 {
        fill: #d2d4d4;
      }

      .cls-4 {
        fill: #c3996c;
      }
    </style>
  </defs>
  <g id="drbuilder_mainlogo3white" transform="translate(0.96 -4.701)">
    <g id="Group_7" data-name="Group 7">
      <rect id="Rectangle_27" data-name="Rectangle 27" class="cls-1" width="500" height="67.63" transform="translate(-0.96 165.24)"/>
      <path id="Path_23" data-name="Path 23" class="cls-2" d="M4.16,223.18V168.46H20.08a85.283,85.283,0,0,1,12.95.84,28.631,28.631,0,0,1,8.73,2.6,27.371,27.371,0,0,1,10.89,9.9,27.872,27.872,0,0,1,.02,28.03,27.519,27.519,0,0,1-10.91,9.9,28.9,28.9,0,0,1-8.82,2.62,98.187,98.187,0,0,1-14.31.82H4.16Zm19.51-16.71q6.645-.03,9.72-2.6t3.06-8.02c0-3.56-.98-6.22-2.93-7.96s-4.95-2.62-8.99-2.62h-.86Z"/>
      <path id="Path_24" data-name="Path 24" class="cls-2" d="M65.52,223.18V168.46H90.26q10.77,0,16.44,4.75t5.68,13.68a15.454,15.454,0,0,1-2.86,9.61,11.076,11.076,0,0,1-7.72,4.41l14.61,22.28H94.38l-9.57-18.05v18.05H65.52Zm19.29-40.63v10.69h3.06a6.236,6.236,0,0,0,4.32-1.36,4.984,4.984,0,0,0,1.51-3.91,5.219,5.219,0,0,0-1.51-4.02,6.151,6.151,0,0,0-4.32-1.4Z"/>
      <path id="Path_25" data-name="Path 25" class="cls-2" d="M119.9,215.37a8.053,8.053,0,0,1,3.08-6.33,11.189,11.189,0,0,1,7.53-2.63,11.311,11.311,0,0,1,7.55,2.63,8.039,8.039,0,0,1,.02,12.67,12.181,12.181,0,0,1-15.12,0A8.11,8.11,0,0,1,119.9,215.37Z"/>
      <path id="Path_26" data-name="Path 26" class="cls-2" d="M149.61,223.18V168.46h26.2q8.415,0,13.12,3.94t4.71,10.97a12.122,12.122,0,0,1-2.22,7.46,10.317,10.317,0,0,1-6.3,3.87q5.565,1.155,8.3,4.37t2.73,8.63q0,7.665-5.18,11.57t-15.23,3.91Zm18.46-41.71v7.66h2.58a5.762,5.762,0,0,0,3.64-.99,3.437,3.437,0,0,0,1.25-2.86,3.385,3.385,0,0,0-1.25-2.84,5.827,5.827,0,0,0-3.64-.97Zm0,19.43v8.75h3.29a7.707,7.707,0,0,0,4.54-1.14,4.1,4.1,0,0,0,0-6.48,7.787,7.787,0,0,0-4.54-1.12h-3.29Z"/>
      <path id="Path_27" data-name="Path 27" class="cls-2" d="M203.43,198.14V168.46h19.66v29.82q0,5.19,1.23,7.16a5.47,5.47,0,0,0,8.44-.06c.85-1.35,1.27-3.71,1.27-7.1V168.46h19.66v29.68a49.734,49.734,0,0,1-.77,9.61,17.8,17.8,0,0,1-2.45,6.32,21.467,21.467,0,0,1-8.97,7.85,32.27,32.27,0,0,1-25.98,0,21.467,21.467,0,0,1-8.97-7.85,17.53,17.53,0,0,1-2.39-6.24A52.093,52.093,0,0,1,203.43,198.14Z"/>
      <path id="Path_28" data-name="Path 28" class="cls-2" d="M265.09,223.18V168.46h20v54.72Z"/>
      <path id="Path_29" data-name="Path 29" class="cls-2" d="M296.52,223.18V168.46h19.7v36.96h19.14v17.75H296.52Z"/>
      <path id="Path_30" data-name="Path 30" class="cls-2" d="M342.19,223.18V168.46h15.92a85.191,85.191,0,0,1,12.95.84,28.719,28.719,0,0,1,8.73,2.6,27.467,27.467,0,0,1,10.9,9.9,27.872,27.872,0,0,1,.02,28.03,27.519,27.519,0,0,1-10.91,9.9,28.9,28.9,0,0,1-8.82,2.62,98.187,98.187,0,0,1-14.31.82H342.19Zm19.51-16.71q6.645-.03,9.72-2.6t3.06-8.02c0-3.56-.98-6.22-2.93-7.96s-4.95-2.62-8.99-2.62h-.86v21.2Z"/>
      <path id="Path_31" data-name="Path 31" class="cls-2" d="M403.55,223.18V168.46h36.59V183.3h-17.3v5.27h15.7v14.02h-15.7v5.76h17.75v14.84H403.55Z"/>
      <path id="Path_32" data-name="Path 32" class="cls-2" d="M449.37,223.18V168.46h24.74q10.77,0,16.45,4.75t5.68,13.68a15.455,15.455,0,0,1-2.86,9.61,11.076,11.076,0,0,1-7.72,4.41l14.61,22.28H478.22l-9.57-18.05v18.05H449.37Zm19.28-40.63v10.69h3.07a6.236,6.236,0,0,0,4.32-1.36,4.984,4.984,0,0,0,1.51-3.91,5.219,5.219,0,0,0-1.51-4.02,6.151,6.151,0,0,0-4.32-1.4Z"/>
    </g>
    <g id="Group_8" data-name="Group 8">
      <rect id="Rectangle_28" data-name="Rectangle 28" class="cls-1" width="495.58" height="39.51" transform="translate(3.46 249.06)"/>
      <path id="Path_33" data-name="Path 33" class="cls-2" d="M5.99,270.55v-20.3H16.04v1.73H7.83v6.35h7.9v1.73H7.83v10.48H5.99Z"/>
      <path id="Path_34" data-name="Path 34" class="cls-2" d="M41.75,270.55l8.92-21.1,8.54,21.1H57.2l-2.59-6.88H46.32l-2.69,6.88Zm5.18-8.46H54l-3.47-8.83Zm1.71-13.83,2.95-4.85h2.27l-3.92,4.85Z"/>
      <path id="Path_35" data-name="Path 35" class="cls-2" d="M85.79,270.55v-20.3h3.52a17.5,17.5,0,0,1,3.34.22,4.5,4.5,0,0,1,1.75.76,5.048,5.048,0,0,1,1.54,1.87,5.582,5.582,0,0,1,.53,2.43,4.466,4.466,0,0,1-.85,2.76,3.944,3.944,0,0,1-2.33,1.5,4.828,4.828,0,0,1,3.06,1.57,4.747,4.747,0,0,1,1.11,3.23,6.938,6.938,0,0,1-.43,2.54,5.039,5.039,0,0,1-1.3,1.91,4.918,4.918,0,0,1-2.14,1.17,18.126,18.126,0,0,1-4.26.34H85.79Zm1.84-11.27h2.3a5.884,5.884,0,0,0,3.58-.83,3.326,3.326,0,0,0,1.05-2.77,3.666,3.666,0,0,0-1.02-2.95,5.727,5.727,0,0,0-3.61-.86h-2.3v7.41Zm0,9.68h2.36a15.225,15.225,0,0,0,2.77-.17,3.175,3.175,0,0,0,1.29-.57,3.454,3.454,0,0,0,1.04-1.38,4.588,4.588,0,0,0,.39-1.88,4.956,4.956,0,0,0-.43-2.14,3.118,3.118,0,0,0-1.19-1.38,4.032,4.032,0,0,0-1.24-.44,13.3,13.3,0,0,0-2.23-.13H87.63v8.09Z"/>
      <path id="Path_36" data-name="Path 36" class="cls-2" d="M123.03,270.55l8.92-21.1,8.54,21.1h-2.01l-2.59-6.88H127.6l-2.69,6.88Zm5.19-8.46h7.07l-3.47-8.83Z"/>
      <path id="Path_37" data-name="Path 37" class="cls-2" d="M167.07,270.55V249.4l14.38,16.98V250.26h1.72v20.89l-14.36-17.01v16.42h-1.74Z"/>
      <path id="Path_38" data-name="Path 38" class="cls-2" d="M281.92,260.45a10.291,10.291,0,0,1-.82,4.08,10.611,10.611,0,0,1-2.36,3.45,10.809,10.809,0,0,1-3.54,2.32,11.216,11.216,0,0,1-8.32,0,10.92,10.92,0,0,1-5.89-5.78,10.375,10.375,0,0,1-.81-4.07,10.44,10.44,0,0,1,3.18-7.58,10.375,10.375,0,0,1,3.48-2.29,11.7,11.7,0,0,1,8.4,0,10.441,10.441,0,0,1,3.49,2.28,10.779,10.779,0,0,1,2.37,3.47A10.379,10.379,0,0,1,281.92,260.45Zm-10.87,8.99a8.714,8.714,0,0,0,3.41-.67,8.953,8.953,0,0,0,2.9-1.94,9.188,9.188,0,0,0,1.94-2.93,9.269,9.269,0,0,0,0-6.92,9.132,9.132,0,0,0-1.94-2.93,8.566,8.566,0,0,0-2.88-1.94,9,9,0,0,0-3.43-.67,8.63,8.63,0,0,0-3.4.67,9.021,9.021,0,0,0-2.89,1.94,9.3,9.3,0,0,0-1.94,2.93,9.075,9.075,0,0,0-.67,3.46,9,9,0,0,0,2.61,6.39,8.669,8.669,0,0,0,2.86,1.95A8.81,8.81,0,0,0,271.05,269.44Z"/>
      <path id="Path_39" data-name="Path 39" class="cls-2" d="M313.91,270.55V251.99h-5.59v-1.73h13.03v1.73h-5.6v18.56Z"/>
      <path id="Path_40" data-name="Path 40" class="cls-2" d="M352.34,270.55V251.99h-5.59v-1.73h13.03v1.73h-5.6v18.56Z"/>
      <path id="Path_41" data-name="Path 41" class="cls-2" d="M387.16,270.55v-20.3H389v8.23h11.05v-8.23h1.84v20.3h-1.84V260.07H389v10.48Z"/>
      <path id="Path_42" data-name="Path 42" class="cls-2" d="M452.02,260.45a10.291,10.291,0,0,1-.82,4.08,10.611,10.611,0,0,1-2.36,3.45,10.809,10.809,0,0,1-3.54,2.32,11.216,11.216,0,0,1-8.32,0,10.92,10.92,0,0,1-5.89-5.78,10.375,10.375,0,0,1-.81-4.07,10.44,10.44,0,0,1,3.18-7.58,10.375,10.375,0,0,1,3.48-2.29,11.7,11.7,0,0,1,8.4,0,10.441,10.441,0,0,1,3.49,2.28,10.779,10.779,0,0,1,2.37,3.47A10.379,10.379,0,0,1,452.02,260.45Zm-10.88,8.99a8.714,8.714,0,0,0,3.41-.67,8.953,8.953,0,0,0,2.9-1.94,9.188,9.188,0,0,0,1.94-2.93,9.269,9.269,0,0,0,0-6.92,9.132,9.132,0,0,0-1.94-2.93,8.566,8.566,0,0,0-2.88-1.94,9,9,0,0,0-3.43-.67,8.63,8.63,0,0,0-3.4.67,9.021,9.021,0,0,0-2.89,1.94,9.3,9.3,0,0,0-1.94,2.93,9.075,9.075,0,0,0-.67,3.46,9,9,0,0,0,2.61,6.39,8.669,8.669,0,0,0,2.86,1.95A8.845,8.845,0,0,0,441.14,269.44Z"/>
      <path id="Path_43" data-name="Path 43" class="cls-2" d="M480.41,270.55V249.4l14.38,16.98V250.26h1.72v20.89l-14.36-17.01v16.42h-1.74Z"/>
    </g>
    <rect id="Rectangle_29" data-name="Rectangle 29" class="cls-2" width="493.83" height="4.94" transform="translate(3.46 145.2)"/>
    <g id="Group_9" data-name="Group 9">
      <rect id="Rectangle_30" data-name="Rectangle 30" class="cls-3" width="139.58" height="24.13" transform="translate(170.541 144.282) rotate(-90)"/>
      <rect id="Rectangle_31" data-name="Rectangle 31" class="cls-3" width="139.58" height="24.13" transform="translate(137.4 144.282) rotate(-90)"/>
      <rect id="Rectangle_32" data-name="Rectangle 32" class="cls-3" width="139.58" height="24.13" transform="translate(104.26 144.281) rotate(-90)"/>
    </g>
    <g id="Group_10" data-name="Group 10">
      <rect id="Rectangle_33" data-name="Rectangle 33" class="cls-3" width="89.08" height="32.15" transform="translate(203.79 112.13)"/>
      <rect id="Rectangle_34" data-name="Rectangle 34" class="cls-3" width="89.08" height="32.15" transform="translate(203.79 67.96)"/>
      <rect id="Rectangle_35" data-name="Rectangle 35" class="cls-3" width="89.08" height="32.15" transform="translate(203.79 23.8)"/>
    </g>
    <g id="Group_11" data-name="Group 11">
      <rect id="Rectangle_36" data-name="Rectangle 36" class="cls-4" width="92.75" height="32.15" transform="translate(3.46 112.13)"/>
      <rect id="Rectangle_37" data-name="Rectangle 37" class="cls-4" width="92.75" height="32.15" transform="translate(3.46 67.96)"/>
      <rect id="Rectangle_38" data-name="Rectangle 38" class="cls-4" width="92.75" height="32.15" transform="translate(3.46 23.8)"/>
      <rect id="Rectangle_39" data-name="Rectangle 39" class="cls-4" width="120.48" height="24.13" transform="translate(371.408 144.277) rotate(-90)"/>
      <rect id="Rectangle_40" data-name="Rectangle 40" class="cls-4" width="120.48" height="24.13" transform="translate(338.267 144.286) rotate(-90)"/>
      <rect id="Rectangle_41" data-name="Rectangle 41" class="cls-4" width="120.48" height="24.13" transform="translate(305.127 144.286) rotate(-90)"/>
      <rect id="Rectangle_42" data-name="Rectangle 42" class="cls-4" width="92.75" height="32.15" transform="translate(404.54 112.13)"/>
      <rect id="Rectangle_43" data-name="Rectangle 43" class="cls-4" width="92.75" height="32.15" transform="translate(404.54 67.96)"/>
      <rect id="Rectangle_44" data-name="Rectangle 44" class="cls-4" width="92.75" height="32.15" transform="translate(404.54 23.8)"/>
    </g>
  </g>
</svg>
